<?xml version="1.0" standalone="no"?>
<!DOCTYPE svg PUBLIC "-//W3C//DTD SVG 20010904//EN"
 "http://www.w3.org/TR/2001/REC-SVG-20010904/DTD/svg10.dtd">
<svg version="1.0" xmlns="http://www.w3.org/2000/svg"
 width="16.000000pt" height="16.000000pt" viewBox="0 0 16.000000 16.000000"
 preserveAspectRatio="xMidYMid meet">
<metadata>
Created by potrace 1.11, written by Peter Selinger 2001-2013
</metadata>
<g transform="translate(0.000000,16.000000) scale(0.002000,-0.002000)"
fill="#000000" stroke="none">
<path d="M2702 7893 l-202 -103 -105 -210 -105 -210 0 -152 0 -153 207 -207
c114 -114 205 -209 203 -212 -3 -2 -212 -73 -465 -157 l-460 -153 -314 -314
-313 -314 -154 -256 c-85 -140 -157 -265 -159 -276 -3 -12 -50 -245 -105 -520
l-100 -499 0 -891 c0 -860 1 -900 24 -1166 14 -151 37 -429 52 -618 l28 -344
207 -361 206 -361 418 -209 418 -209 518 156 518 156 728 364 728 364 414 311
414 311 160 177 c88 98 193 214 232 258 40 44 178 197 307 341 l235 260 101
407 c56 224 102 426 102 449 -1 24 -23 214 -49 423 -27 209 -46 382 -43 385 4
3 97 28 207 54 l200 48 312 311 c172 171 309 314 305 318 -4 4 -72 28 -152 54
-79 27 -308 119 -510 205 -201 86 -436 181 -523 210 l-159 52 -95 -48 c-53
-27 -100 -50 -105 -52 -4 -2 -8 109 -8 248 0 227 2 254 19 288 10 20 105 187
210 371 l192 335 -106 158 -105 158 -153 0 -153 0 -61 -62 c-43 -44 -92 -115
-163 -233 -55 -93 -105 -174 -111 -180 -6 -5 66 145 161 333 l171 344 -38 -6
c-21 -3 -231 -27 -467 -53 l-429 -47 -241 -144 c-133 -80 -250 -149 -262 -154
-11 -5 -88 -99 -170 -209 -82 -109 -150 -195 -152 -191 -2 8 50 556 83 865
l16 149 99 149 c55 82 100 151 100 154 0 3 -117 5 -260 5 l-260 0 -205 -102
-204 -102 -54 -159 -54 -158 48 -282 c27 -155 48 -286 48 -292 0 -5 -67 169
-149 388 l-149 399 -52 259 c-29 142 -55 258 -58 257 -3 0 -97 -48 -209 -105z"/>
</g>
</svg>
